<svg width="115" height="125" viewBox="0 0 115 125" fill="none" xmlns="http://www.w3.org/2000/svg">
<path d="M2.27537 108.541V2.5293H11.1518M49.8035 38.372V2.5293H38.736M49.8035 38.372H66.545M49.8035 38.372H38.736V2.5293M66.545 38.372V2.5293H77.163M66.545 38.372H77.163V2.5293M114.185 2.5293H77.163M11.1518 2.5293V87.9226M11.1518 2.5293H38.736M30.59 53.1473H57.6686M84.7473 53.1473H95.0844V16.5181H84.7473V53.1473ZM84.7473 53.1473H57.6686M84.4664 71.4619H57.5563M30.6462 71.4619H20.0844V106.911H30.6462V71.4619ZM30.6462 71.4619H57.5563M57.6686 53.1473L57.5563 71.4619M112.837 14.8888V122.529H104.579M66.6012 86.1248V122.529H76.545M66.6012 86.1248H76.545V122.529M66.6012 86.1248H49.6911M76.545 122.529H104.579M104.579 37.1922V122.529M38.7922 122.529V86.1248H49.6911M38.7922 122.529H0.814697M38.7922 122.529H49.6911V86.1248" stroke="#F2B91D" stroke-width="3.14607"/>
</svg>
