<svg width="204" height="54" viewBox="0 0 204 54" fill="none" xmlns="http://www.w3.org/2000/svg">
<path d="M1.63296 46.9382V1H5.4794M22.2285 16.5318V1H17.4326M22.2285 16.5318H29.4831M22.2285 16.5318H17.4326V1M29.4831 16.5318V1H34.0843M29.4831 16.5318H34.0843V1M50.1273 1H34.0843M5.4794 1V38.0037M5.4794 1H17.4326M13.9026 22.9345H25.6367M37.3708 22.9345H41.8502V7.0618H37.3708V22.9345ZM37.3708 22.9345H25.6367M37.2491 30.8708H25.588M13.927 30.8708H9.35019V46.2322H13.927V30.8708ZM13.927 30.8708H25.588M25.6367 22.9345L25.588 30.8708M49.5431 6.35581V53H45.9644M29.5075 37.2247V53H33.8165M29.5075 37.2247H33.8165V53M29.5075 37.2247H22.1798M33.8165 53H45.9644M45.9644 16.0206V53M17.4569 53V37.2247H22.1798M17.4569 53H1M17.4569 53H22.1798V37.2247" stroke="#F2B91D" stroke-width="1.54791"/>
<path d="M59.3285 25V5.27148H63.3617V13.2695H68.4066V5.27148H72.4398V25H68.4066V16.7148H63.3617V25H59.3285ZM79.809 25.2871C78.6241 25.2871 77.6123 25.0046 76.7738 24.4395C75.9444 23.8743 75.3109 23.0267 74.8734 21.8965C74.4359 20.7663 74.2172 19.3535 74.2172 17.6582V17.6445C74.2172 15.9583 74.4314 14.5547 74.8597 13.4336C75.2972 12.3125 75.9261 11.4694 76.7465 10.9043C77.5668 10.3301 78.5557 10.043 79.7133 10.043C80.8617 10.043 81.837 10.3301 82.639 10.9043C83.4411 11.4785 84.0518 12.3216 84.4711 13.4336C84.8995 14.5365 85.1136 15.89 85.1136 17.4941V18.6836H76.2269V16.2227H83.2816L81.4222 18.4922V16.5918C81.4222 15.8079 81.3539 15.1562 81.2172 14.6367C81.0896 14.1081 80.8982 13.7116 80.6429 13.4473C80.3969 13.1738 80.1006 13.0371 79.7543 13.0371C79.3988 13.0371 79.0935 13.1738 78.8383 13.4473C78.5922 13.7207 78.4008 14.1217 78.264 14.6504C78.1364 15.1699 78.0726 15.8171 78.0726 16.5918V18.5332C78.0726 19.3809 78.1455 20.0827 78.2914 20.6387C78.4372 21.1855 78.6423 21.5957 78.9066 21.8691C79.1709 22.1426 79.4899 22.2793 79.8636 22.2793C80.1553 22.2793 80.4105 22.2064 80.6293 22.0605C80.8571 21.9147 81.0394 21.7096 81.1761 21.4453C81.3129 21.181 81.4086 20.8665 81.4633 20.502L81.5043 20.2695H85.0179L84.9769 20.584C84.904 21.2676 84.7399 21.8919 84.4847 22.457C84.2295 23.0221 83.8877 23.5189 83.4594 23.9473C83.031 24.3757 82.5114 24.7083 81.9008 24.9453C81.2901 25.1732 80.5928 25.2871 79.809 25.2871ZM91.6898 25.2461C90.5778 25.2461 89.6163 25.0638 88.8051 24.6992C88.003 24.3255 87.3832 23.7969 86.9457 23.1133C86.5082 22.4206 86.2849 21.6048 86.2758 20.666V20.3652H90.0219V20.7344C90.0492 21.2995 90.195 21.7188 90.4594 21.9922C90.7328 22.2656 91.1247 22.4023 91.6351 22.4023C91.9268 22.4023 92.1774 22.3522 92.3871 22.252C92.6058 22.1426 92.7699 21.9922 92.8793 21.8008C92.9978 21.6094 93.057 21.3861 93.057 21.1309V21.1035C93.057 20.7025 92.9248 20.3652 92.6605 20.0918C92.4053 19.8092 91.9678 19.5495 91.348 19.3125L89.9808 18.834C89.2061 18.5423 88.559 18.1914 88.0394 17.7812C87.529 17.3711 87.1462 16.8971 86.891 16.3594C86.6449 15.8125 86.5219 15.1927 86.5219 14.5V14.4727C86.5219 13.6068 86.7406 12.8457 87.1781 12.1895C87.6156 11.5241 88.2217 11.0046 88.9965 10.6309C89.7712 10.248 90.6735 10.0566 91.7035 10.0566C92.7152 10.0566 93.5902 10.248 94.3285 10.6309C95.0759 11.0046 95.6501 11.5286 96.0511 12.2031C96.4613 12.8685 96.6664 13.6523 96.6664 14.5547V14.9512H93.139L93.1254 14.5957C93.1163 14.0671 92.9886 13.6569 92.7426 13.3652C92.4965 13.0645 92.1501 12.9141 91.7035 12.9141C91.4118 12.9141 91.1612 12.9688 90.9515 13.0781C90.751 13.1784 90.5961 13.3288 90.4867 13.5293C90.3864 13.7207 90.3363 13.944 90.3363 14.1992V14.2266C90.3363 14.4818 90.3864 14.7096 90.4867 14.9102C90.5961 15.1107 90.7738 15.293 91.0199 15.457C91.266 15.6211 91.5941 15.7806 92.0043 15.9355L93.3578 16.4141C94.6338 16.8789 95.5498 17.4531 96.1058 18.1367C96.6709 18.8203 96.9535 19.6908 96.9535 20.748V20.7617C96.9535 21.6641 96.7347 22.4525 96.2972 23.127C95.8689 23.8014 95.2582 24.3255 94.4652 24.6992C93.6722 25.0638 92.7471 25.2461 91.6898 25.2461ZM98.5258 25V5.27148H102.422V12.4766H102.504C102.778 11.7109 103.192 11.1185 103.748 10.6992C104.314 10.2708 105.011 10.0566 105.84 10.0566C106.615 10.0566 107.28 10.248 107.836 10.6309C108.392 11.0046 108.821 11.5423 109.121 12.2441C109.422 12.9368 109.573 13.7617 109.573 14.7188V25H105.676V15.498C105.676 14.8691 105.549 14.3678 105.293 13.9941C105.047 13.6113 104.651 13.4199 104.104 13.4199C103.748 13.4199 103.443 13.5111 103.188 13.6934C102.942 13.8665 102.75 14.1217 102.614 14.459C102.486 14.7871 102.422 15.1745 102.422 15.6211V25H98.5258ZM114.836 25.2461C114.089 25.2461 113.433 25.082 112.868 24.7539C112.302 24.4167 111.86 23.9382 111.541 23.3184C111.231 22.6895 111.077 21.9466 111.077 21.0898V21.0625C111.077 20.2148 111.25 19.4583 111.596 18.793C111.942 18.1185 112.498 17.5716 113.264 17.1523C114.039 16.724 115.06 16.4505 116.327 16.332L119.977 16.0176V18.4648L116.914 18.752C116.267 18.8158 115.775 19.0117 115.438 19.3398C115.101 19.668 114.932 20.1191 114.932 20.6934V20.707C114.932 21.263 115.069 21.6686 115.342 21.9238C115.616 22.179 115.948 22.3066 116.34 22.3066C116.659 22.3066 116.942 22.2292 117.188 22.0742C117.443 21.9102 117.644 21.6777 117.789 21.377C117.944 21.0762 118.022 20.7116 118.022 20.2832V14.9102C118.022 14.3451 117.89 13.9121 117.625 13.6113C117.37 13.3014 117.019 13.1465 116.573 13.1465C116.126 13.1465 115.771 13.2832 115.506 13.5566C115.251 13.8301 115.105 14.2676 115.069 14.8691V15.1562H111.5V14.7598C111.528 13.8392 111.746 13.028 112.157 12.3262C112.567 11.6152 113.155 11.0592 113.92 10.6582C114.686 10.2572 115.616 10.0566 116.709 10.0566C117.821 10.0566 118.765 10.248 119.539 10.6309C120.323 11.0137 120.911 11.5651 121.303 12.2852C121.704 13.0052 121.905 13.8802 121.905 14.9102V25H118.022V23.3184H117.94C117.767 23.7103 117.534 24.0521 117.243 24.3438C116.951 24.6263 116.6 24.8451 116.19 25C115.789 25.1641 115.338 25.2461 114.836 25.2461ZM123.846 25V10.3164H127.743V12.3672H127.825C128.098 11.6654 128.508 11.1094 129.055 10.6992C129.602 10.2799 130.276 10.0703 131.078 10.0703C131.607 10.0703 132.081 10.166 132.5 10.3574C132.929 10.5397 133.293 10.8132 133.594 11.1777C133.904 11.5332 134.136 11.9661 134.291 12.4766H134.373C134.565 11.9844 134.82 11.5605 135.139 11.2051C135.467 10.8405 135.855 10.5625 136.301 10.3711C136.757 10.1706 137.272 10.0703 137.846 10.0703C138.603 10.0703 139.25 10.2572 139.787 10.6309C140.325 10.9954 140.74 11.5195 141.032 12.2031C141.323 12.8776 141.469 13.6751 141.469 14.5957V25H137.573V15.334C137.573 14.9421 137.518 14.6048 137.409 14.3223C137.308 14.0306 137.153 13.8073 136.944 13.6523C136.743 13.4974 136.483 13.4199 136.164 13.4199C135.827 13.4199 135.54 13.5065 135.303 13.6797C135.075 13.8438 134.902 14.0807 134.784 14.3906C134.665 14.6914 134.606 15.0514 134.606 15.4707V25H130.723V15.3203C130.723 14.9284 130.673 14.5911 130.573 14.3086C130.472 14.026 130.317 13.8073 130.108 13.6523C129.898 13.4974 129.638 13.4199 129.328 13.4199C128.991 13.4199 128.704 13.5065 128.467 13.6797C128.239 13.8438 128.062 14.0807 127.934 14.3906C127.815 14.7005 127.756 15.0651 127.756 15.4844V25H123.846ZM151.368 25V8.7168H147.498V5.27148H159.256V8.7168H155.387V25H151.368ZM161.621 25.2461C160.874 25.2461 160.218 25.082 159.653 24.7539C159.088 24.4167 158.646 23.9382 158.327 23.3184C158.017 22.6895 157.862 21.9466 157.862 21.0898V21.0625C157.862 20.2148 158.035 19.4583 158.381 18.793C158.728 18.1185 159.284 17.5716 160.049 17.1523C160.824 16.724 161.845 16.4505 163.112 16.332L166.762 16.0176V18.4648L163.7 18.752C163.052 18.8158 162.56 19.0117 162.223 19.3398C161.886 19.668 161.717 20.1191 161.717 20.6934V20.707C161.717 21.263 161.854 21.6686 162.127 21.9238C162.401 22.179 162.733 22.3066 163.125 22.3066C163.444 22.3066 163.727 22.2292 163.973 22.0742C164.228 21.9102 164.429 21.6777 164.575 21.377C164.73 21.0762 164.807 20.7116 164.807 20.2832V14.9102C164.807 14.3451 164.675 13.9121 164.411 13.6113C164.155 13.3014 163.804 13.1465 163.358 13.1465C162.911 13.1465 162.556 13.2832 162.291 13.5566C162.036 13.8301 161.89 14.2676 161.854 14.8691V15.1562H158.286V14.7598C158.313 13.8392 158.532 13.028 158.942 12.3262C159.352 11.6152 159.94 11.0592 160.705 10.6582C161.471 10.2572 162.401 10.0566 163.495 10.0566C164.606 10.0566 165.55 10.248 166.325 10.6309C167.108 11.0137 167.696 11.5651 168.088 12.2852C168.489 13.0052 168.69 13.8802 168.69 14.9102V25H164.807V23.3184H164.725C164.552 23.7103 164.319 24.0521 164.028 24.3438C163.736 24.6263 163.385 24.8451 162.975 25C162.574 25.1641 162.123 25.2461 161.621 25.2461ZM170.618 25V10.3164H174.514V12.709H174.596C174.769 11.7155 175.079 11.0273 175.526 10.6445C175.981 10.2526 176.528 10.0566 177.166 10.0566C177.367 10.0566 177.549 10.0703 177.713 10.0977C177.886 10.125 178.05 10.166 178.205 10.2207V13.7891C178.023 13.7161 177.827 13.6569 177.618 13.6113C177.408 13.5658 177.189 13.543 176.961 13.543C176.414 13.543 175.959 13.6797 175.594 13.9531C175.239 14.2174 174.97 14.6094 174.787 15.1289C174.605 15.6393 174.514 16.2682 174.514 17.0156V25H170.618ZM184.426 25.2871C183.241 25.2871 182.23 25.0046 181.391 24.4395C180.562 23.8743 179.928 23.0267 179.491 21.8965C179.053 20.7663 178.834 19.3535 178.834 17.6582V17.6445C178.834 15.9583 179.049 14.5547 179.477 13.4336C179.914 12.3125 180.543 11.4694 181.364 10.9043C182.184 10.3301 183.173 10.043 184.33 10.043C185.479 10.043 186.454 10.3301 187.256 10.9043C188.058 11.4785 188.669 12.3216 189.088 13.4336C189.517 14.5365 189.731 15.89 189.731 17.4941V18.6836H180.844V16.2227H187.899L186.039 18.4922V16.5918C186.039 15.8079 185.971 15.1562 185.834 14.6367C185.707 14.1081 185.515 13.7116 185.26 13.4473C185.014 13.1738 184.718 13.0371 184.371 13.0371C184.016 13.0371 183.711 13.1738 183.455 13.4473C183.209 13.7207 183.018 14.1217 182.881 14.6504C182.754 15.1699 182.69 15.8171 182.69 16.5918V18.5332C182.69 19.3809 182.763 20.0827 182.909 20.6387C183.054 21.1855 183.259 21.5957 183.524 21.8691C183.788 22.1426 184.107 22.2793 184.481 22.2793C184.773 22.2793 185.028 22.2064 185.246 22.0605C185.474 21.9147 185.657 21.7096 185.793 21.4453C185.93 21.181 186.026 20.8665 186.08 20.502L186.121 20.2695H189.635L189.594 20.584C189.521 21.2676 189.357 21.8919 189.102 22.457C188.847 23.0221 188.505 23.5189 188.077 23.9473C187.648 24.3757 187.129 24.7083 186.518 24.9453C185.907 25.1732 185.21 25.2871 184.426 25.2871ZM191.412 25V5.27148H195.323V25H191.412ZM199.041 25L195.815 18.6016L198.467 15.7441L203.116 25H199.041ZM194.789 21.4863V16.0996H195.391L198.973 10.3164H202.911L197.77 18.6426L196.512 18.5605L194.789 21.4863Z" fill="white"/>
<path d="M60.1919 49V37.022H66.0273V38.5742H62.0014V42.1519H65.7949V43.6377H62.0014V47.4478H66.0273V49H60.1919ZM67.7459 49V39.9854H69.4891V41.2222H69.5472C69.7243 40.8071 69.9927 40.4723 70.3524 40.2178C70.7176 39.9632 71.1714 39.8359 71.7137 39.8359C72.505 39.8359 73.1138 40.0877 73.5399 40.5913C73.9715 41.0949 74.1873 41.7839 74.1873 42.6582V49H72.4442V42.9819C72.4442 42.4728 72.3307 42.0716 72.1038 41.7783C71.8825 41.4795 71.5311 41.3301 71.0496 41.3301C70.7176 41.3301 70.4354 41.4076 70.2029 41.5625C69.9705 41.7119 69.7934 41.925 69.6717 42.2017C69.55 42.4728 69.4891 42.7882 69.4891 43.1479V49H67.7459ZM79.3175 52.1377C78.6645 52.1377 78.1084 52.0353 77.6491 51.8306C77.1898 51.6313 76.8273 51.3464 76.5617 50.9756C76.3016 50.6048 76.1439 50.1676 76.0885 49.6641L76.0802 49.5562H77.757L77.7653 49.6392C77.8317 50.0044 77.9949 50.2811 78.255 50.4692C78.5151 50.6629 78.8721 50.7598 79.3258 50.7598C79.846 50.7598 80.2445 50.6297 80.5211 50.3696C80.7978 50.1095 80.9362 49.7305 80.9362 49.2324V47.4893H80.8781C80.7508 47.7881 80.582 48.0426 80.3717 48.2529C80.167 48.4577 79.9235 48.6126 79.6413 48.7178C79.359 48.8229 79.0436 48.8755 78.695 48.8755C78.0697 48.8755 77.5356 48.7012 77.0929 48.3525C76.6558 47.9984 76.3237 47.4865 76.0968 46.8169C75.8699 46.1418 75.7565 45.3283 75.7565 44.3765V44.3599C75.7565 43.4136 75.8699 42.6056 76.0968 41.936C76.3293 41.2664 76.6641 40.7546 77.1012 40.4004C77.5384 40.0462 78.0724 39.8691 78.7033 39.8691C79.0685 39.8691 79.3922 39.9272 79.6745 40.0435C79.9567 40.1597 80.1974 40.3229 80.3966 40.5332C80.6014 40.7435 80.7619 40.9925 80.8781 41.2803H80.9279V39.9854H82.6711V49.0498C82.6711 49.7028 82.5382 50.2617 82.2726 50.7266C82.0125 51.1914 81.6307 51.5428 81.1271 51.7808C80.6291 52.0187 80.0259 52.1377 79.3175 52.1377ZM79.2262 47.4395C79.6302 47.4395 79.9567 47.3066 80.2057 47.041C80.4603 46.7754 80.6457 46.4129 80.7619 45.9536C80.8781 45.4943 80.9362 44.9714 80.9362 44.3848V44.3682C80.9362 43.8037 80.8753 43.2946 80.7536 42.8408C80.6374 42.387 80.4547 42.0273 80.2057 41.7617C79.9567 41.4961 79.633 41.3633 79.2345 41.3633C78.8638 41.3633 78.5539 41.4795 78.3048 41.7119C78.0558 41.9388 77.8649 42.2764 77.7321 42.7246C77.5993 43.1729 77.5329 43.7152 77.5329 44.3516V44.3682C77.5329 45.0378 77.5965 45.6022 77.7238 46.0615C77.8566 46.5153 78.0475 46.8584 78.2965 47.0908C78.5511 47.3232 78.861 47.4395 79.2262 47.4395ZM84.6221 49V39.9854H86.3652V49H84.6221ZM85.4936 38.7485C85.2114 38.7485 84.9679 38.6489 84.7632 38.4497C84.5584 38.245 84.4561 38.0015 84.4561 37.7192C84.4561 37.437 84.5584 37.1963 84.7632 36.9971C84.9679 36.7979 85.2114 36.6982 85.4936 36.6982C85.7869 36.6982 86.036 36.7979 86.2407 36.9971C86.4455 37.1963 86.5478 37.437 86.5478 37.7192C86.5478 38.0015 86.4455 38.245 86.2407 38.4497C86.036 38.6489 85.7869 38.7485 85.4936 38.7485ZM88.3411 49V39.9854H90.0843V41.2222H90.1424C90.3195 40.8071 90.5879 40.4723 90.9476 40.2178C91.3128 39.9632 91.7666 39.8359 92.3089 39.8359C93.1003 39.8359 93.709 40.0877 94.1351 40.5913C94.5667 41.0949 94.7826 41.7839 94.7826 42.6582V49H93.0394V42.9819C93.0394 42.4728 92.9259 42.0716 92.6991 41.7783C92.4777 41.4795 92.1263 41.3301 91.6449 41.3301C91.3128 41.3301 91.0306 41.4076 90.7982 41.5625C90.5658 41.7119 90.3887 41.925 90.2669 42.2017C90.1452 42.4728 90.0843 42.7882 90.0843 43.1479V49H88.3411ZM99.7302 49.1494C99.0052 49.1494 98.391 48.9723 97.8874 48.6182C97.3893 48.264 97.0103 47.741 96.7502 47.0493C96.4901 46.3576 96.36 45.5081 96.36 44.501V44.4844C96.36 43.4772 96.4873 42.6278 96.7419 41.936C96.9964 41.2443 97.3672 40.7214 97.8542 40.3672C98.3467 40.0075 98.9443 39.8276 99.6471 39.8276C100.344 39.8276 100.937 40.0047 101.424 40.3589C101.91 40.7131 102.281 41.2305 102.536 41.9111C102.79 42.5863 102.918 43.408 102.918 44.3765V44.9824H97.298V43.7705H102.071L101.216 44.8828V44.0278C101.216 43.4246 101.152 42.9183 101.025 42.5088C100.898 42.0938 100.718 41.7811 100.486 41.5708C100.259 41.355 99.9847 41.2471 99.6637 41.2471C99.3428 41.2471 99.0661 41.355 98.8337 41.5708C98.6012 41.7866 98.4214 42.1021 98.2941 42.5171C98.1724 42.9266 98.1115 43.4302 98.1115 44.0278V44.8911C98.1115 45.5109 98.1779 46.0311 98.3107 46.4517C98.4435 46.8722 98.6317 47.1904 98.8752 47.4062C99.1242 47.6221 99.4147 47.73 99.7468 47.73C100.012 47.73 100.245 47.6774 100.444 47.5723C100.643 47.4616 100.806 47.3094 100.934 47.1157C101.061 46.9165 101.15 46.6868 101.199 46.4268L101.233 46.2441H102.851L102.826 46.46C102.765 46.8529 102.652 47.2153 102.486 47.5474C102.326 47.8794 102.115 48.1644 101.855 48.4023C101.595 48.6403 101.288 48.8257 100.934 48.9585C100.58 49.0858 100.178 49.1494 99.7302 49.1494ZM107.608 49.1494C106.883 49.1494 106.269 48.9723 105.765 48.6182C105.267 48.264 104.888 47.741 104.628 47.0493C104.368 46.3576 104.238 45.5081 104.238 44.501V44.4844C104.238 43.4772 104.365 42.6278 104.62 41.936C104.874 41.2443 105.245 40.7214 105.732 40.3672C106.224 40.0075 106.822 39.8276 107.525 39.8276C108.222 39.8276 108.814 40.0047 109.301 40.3589C109.788 40.7131 110.159 41.2305 110.414 41.9111C110.668 42.5863 110.795 43.408 110.795 44.3765V44.9824H105.176V43.7705H109.949L109.094 44.8828V44.0278C109.094 43.4246 109.03 42.9183 108.903 42.5088C108.776 42.0938 108.596 41.7811 108.363 41.5708C108.136 41.355 107.862 41.2471 107.542 41.2471C107.221 41.2471 106.944 41.355 106.711 41.5708C106.479 41.7866 106.299 42.1021 106.172 42.5171C106.05 42.9266 105.989 43.4302 105.989 44.0278V44.8911C105.989 45.5109 106.056 46.0311 106.188 46.4517C106.321 46.8722 106.509 47.1904 106.753 47.4062C107.002 47.6221 107.292 47.73 107.625 47.73C107.89 47.73 108.123 47.6774 108.322 47.5723C108.521 47.4616 108.684 47.3094 108.812 47.1157C108.939 46.9165 109.027 46.6868 109.077 46.4268L109.11 46.2441H110.729L110.704 46.46C110.643 46.8529 110.53 47.2153 110.364 47.5474C110.203 47.8794 109.993 48.1644 109.733 48.4023C109.473 48.6403 109.166 48.8257 108.812 48.9585C108.457 49.0858 108.056 49.1494 107.608 49.1494ZM112.439 49V39.9854H114.182V41.3301H114.232C114.36 40.7878 114.578 40.4059 114.888 40.1846C115.198 39.9577 115.577 39.8442 116.025 39.8442C116.158 39.8442 116.28 39.8525 116.39 39.8691C116.507 39.8857 116.606 39.9051 116.689 39.9272V41.5459C116.584 41.5072 116.462 41.4767 116.324 41.4546C116.191 41.4325 116.047 41.4214 115.892 41.4214C115.522 41.4214 115.209 41.5127 114.954 41.6953C114.7 41.8724 114.506 42.1297 114.373 42.4673C114.246 42.7993 114.182 43.2033 114.182 43.6792V49H112.439ZM117.935 49V39.9854H119.678V49H117.935ZM118.806 38.7485C118.524 38.7485 118.281 38.6489 118.076 38.4497C117.871 38.245 117.769 38.0015 117.769 37.7192C117.769 37.437 117.871 37.1963 118.076 36.9971C118.281 36.7979 118.524 36.6982 118.806 36.6982C119.1 36.6982 119.349 36.7979 119.553 36.9971C119.758 37.1963 119.861 37.437 119.861 37.7192C119.861 38.0015 119.758 38.245 119.553 38.4497C119.349 38.6489 119.1 38.7485 118.806 38.7485ZM121.654 49V39.9854H123.397V41.2222H123.455C123.632 40.8071 123.901 40.4723 124.26 40.2178C124.626 39.9632 125.079 39.8359 125.622 39.8359C126.413 39.8359 127.022 40.0877 127.448 40.5913C127.879 41.0949 128.095 41.7839 128.095 42.6582V49H126.352V42.9819C126.352 42.4728 126.239 42.0716 126.012 41.7783C125.79 41.4795 125.439 41.3301 124.958 41.3301C124.626 41.3301 124.343 41.4076 124.111 41.5625C123.878 41.7119 123.701 41.925 123.58 42.2017C123.458 42.4728 123.397 42.7882 123.397 43.1479V49H121.654ZM133.225 52.1377C132.572 52.1377 132.016 52.0353 131.557 51.8306C131.098 51.6313 130.735 51.3464 130.47 50.9756C130.21 50.6048 130.052 50.1676 129.996 49.6641L129.988 49.5562H131.665L131.673 49.6392C131.74 50.0044 131.903 50.2811 132.163 50.4692C132.423 50.6629 132.78 50.7598 133.234 50.7598C133.754 50.7598 134.152 50.6297 134.429 50.3696C134.706 50.1095 134.844 49.7305 134.844 49.2324V47.4893H134.786C134.659 47.7881 134.49 48.0426 134.28 48.2529C134.075 48.4577 133.831 48.6126 133.549 48.7178C133.267 48.8229 132.952 48.8755 132.603 48.8755C131.978 48.8755 131.444 48.7012 131.001 48.3525C130.564 47.9984 130.232 47.4865 130.005 46.8169C129.778 46.1418 129.664 45.3283 129.664 44.3765V44.3599C129.664 43.4136 129.778 42.6056 130.005 41.936C130.237 41.2664 130.572 40.7546 131.009 40.4004C131.446 40.0462 131.98 39.8691 132.611 39.8691C132.976 39.8691 133.3 39.9272 133.582 40.0435C133.865 40.1597 134.105 40.3229 134.305 40.5332C134.509 40.7435 134.67 40.9925 134.786 41.2803H134.836V39.9854H136.579V49.0498C136.579 49.7028 136.446 50.2617 136.181 50.7266C135.92 51.1914 135.539 51.5428 135.035 51.7808C134.537 52.0187 133.934 52.1377 133.225 52.1377ZM133.134 47.4395C133.538 47.4395 133.865 47.3066 134.114 47.041C134.368 46.7754 134.554 46.4129 134.67 45.9536C134.786 45.4943 134.844 44.9714 134.844 44.3848V44.3682C134.844 43.8037 134.783 43.2946 134.661 42.8408C134.545 42.387 134.363 42.0273 134.114 41.7617C133.865 41.4961 133.541 41.3633 133.142 41.3633C132.772 41.3633 132.462 41.4795 132.213 41.7119C131.964 41.9388 131.773 42.2764 131.64 42.7246C131.507 43.1729 131.441 43.7152 131.441 44.3516V44.3682C131.441 45.0378 131.504 45.6022 131.632 46.0615C131.765 46.5153 131.955 46.8584 132.204 47.0908C132.459 47.3232 132.769 47.4395 133.134 47.4395ZM144.54 49.1826C143.826 49.1826 143.212 49.0498 142.697 48.7842C142.188 48.513 141.79 48.1312 141.502 47.6387C141.22 47.1406 141.065 46.554 141.037 45.8789L141.029 45.6797H142.78L142.789 45.9038C142.816 46.269 142.905 46.5817 143.054 46.8418C143.209 47.0964 143.414 47.29 143.669 47.4229C143.923 47.5557 144.219 47.6221 144.557 47.6221C144.889 47.6221 145.174 47.5584 145.412 47.4312C145.655 47.3039 145.841 47.1213 145.968 46.8833C146.101 46.6398 146.167 46.3521 146.167 46.02V46.0117C146.167 45.5635 146.043 45.1789 145.794 44.8579C145.544 44.5314 145.091 44.1883 144.432 43.8286L143.561 43.3804C142.78 42.9819 142.194 42.5199 141.801 41.9941C141.413 41.4684 141.22 40.8127 141.22 40.0269V40.0186C141.22 39.3822 141.355 38.826 141.627 38.3501C141.903 37.8742 142.293 37.5034 142.797 37.2378C143.301 36.9722 143.887 36.8394 144.557 36.8394C145.237 36.8394 145.816 36.9722 146.292 37.2378C146.767 37.5034 147.135 37.877 147.396 38.3584C147.656 38.8398 147.8 39.4126 147.827 40.0767L147.836 40.3257H146.092L146.076 40.1016C146.059 39.7363 145.987 39.4264 145.86 39.1719C145.733 38.9173 145.558 38.7236 145.337 38.5908C145.116 38.458 144.853 38.3944 144.548 38.3999C144.238 38.3999 143.97 38.4608 143.743 38.5825C143.516 38.7043 143.342 38.8813 143.22 39.1138C143.099 39.3407 143.038 39.609 143.038 39.9189V39.9355C143.038 40.3506 143.162 40.7186 143.411 41.0396C143.66 41.355 144.07 41.6621 144.64 41.9609L145.52 42.4258C146.123 42.7412 146.604 43.0622 146.964 43.3887C147.329 43.7152 147.589 44.0776 147.744 44.4761C147.905 44.8745 147.985 45.3366 147.985 45.8623V45.8789C147.985 46.554 147.847 47.1406 147.57 47.6387C147.293 48.1312 146.898 48.5103 146.383 48.7759C145.868 49.0415 145.254 49.1771 144.54 49.1826ZM152.725 49.1494C151.972 49.1494 151.336 48.9751 150.816 48.6265C150.296 48.2723 149.903 47.7493 149.637 47.0576C149.371 46.3659 149.239 45.5109 149.239 44.4927V44.4761C149.239 43.4744 149.371 42.6278 149.637 41.936C149.908 41.2443 150.304 40.7214 150.824 40.3672C151.344 40.013 151.978 39.8359 152.725 39.8359C153.472 39.8359 154.103 40.013 154.618 40.3672C155.138 40.7214 155.533 41.2443 155.805 41.936C156.081 42.6278 156.22 43.4744 156.22 44.4761V44.4927C156.22 45.5109 156.084 46.3659 155.813 47.0576C155.542 47.7493 155.146 48.2723 154.626 48.6265C154.106 48.9751 153.472 49.1494 152.725 49.1494ZM152.725 47.6968C153.096 47.6968 153.408 47.5806 153.663 47.3481C153.918 47.1102 154.108 46.7533 154.236 46.2773C154.369 45.8014 154.435 45.2093 154.435 44.501V44.4761C154.435 43.7677 154.369 43.1784 154.236 42.708C154.108 42.2376 153.918 41.8835 153.663 41.6455C153.408 41.4076 153.096 41.2886 152.725 41.2886C152.349 41.2886 152.033 41.4076 151.779 41.6455C151.524 41.8835 151.333 42.2376 151.206 42.708C151.079 43.1784 151.015 43.7677 151.015 44.4761V44.501C151.015 45.2093 151.079 45.8014 151.206 46.2773C151.333 46.7533 151.524 47.1102 151.779 47.3481C152.033 47.5806 152.349 47.6968 152.725 47.6968ZM157.897 49V36.5903H159.64V49H157.897ZM164.031 49.1494C163.495 49.1494 163.041 49.036 162.67 48.8091C162.305 48.5822 162.028 48.2585 161.84 47.8379C161.657 47.4173 161.566 46.9193 161.566 46.3438V39.9854H163.301V46.02C163.301 46.5181 163.412 46.9165 163.633 47.2153C163.854 47.5086 164.208 47.6553 164.695 47.6553C164.944 47.6553 165.166 47.6138 165.359 47.5308C165.559 47.4478 165.725 47.326 165.857 47.1655C165.99 47.005 166.09 46.8141 166.156 46.5928C166.223 46.3714 166.256 46.1252 166.256 45.854V39.9854H168.007V49H166.256V47.7715H166.206C166.084 48.0537 165.921 48.2972 165.716 48.502C165.517 48.7067 165.276 48.8672 164.994 48.9834C164.712 49.0941 164.391 49.1494 164.031 49.1494ZM172.955 49.1162C172.108 49.1162 171.475 48.9336 171.054 48.5684C170.634 48.1976 170.423 47.6082 170.423 46.8003V41.3633H169.336V39.9771H170.423V37.6445H172.2V39.9771H173.752V41.3633H172.2V46.6177C172.2 47.0106 172.285 47.2956 172.457 47.4727C172.634 47.6497 172.913 47.7383 173.295 47.7383C173.395 47.7383 173.483 47.7355 173.561 47.73C173.638 47.7244 173.719 47.7161 173.802 47.7051V49.0415C173.691 49.0636 173.564 49.0802 173.42 49.0913C173.276 49.1079 173.121 49.1162 172.955 49.1162ZM175.122 49V39.9854H176.865V49H175.122ZM175.993 38.7485C175.711 38.7485 175.468 38.6489 175.263 38.4497C175.058 38.245 174.956 38.0015 174.956 37.7192C174.956 37.437 175.058 37.1963 175.263 36.9971C175.468 36.7979 175.711 36.6982 175.993 36.6982C176.287 36.6982 176.536 36.7979 176.74 36.9971C176.945 37.1963 177.048 37.437 177.048 37.7192C177.048 38.0015 176.945 38.245 176.74 38.4497C176.536 38.6489 176.287 38.7485 175.993 38.7485ZM182.004 49.1494C181.251 49.1494 180.615 48.9751 180.094 48.6265C179.574 48.2723 179.181 47.7493 178.916 47.0576C178.65 46.3659 178.517 45.5109 178.517 44.4927V44.4761C178.517 43.4744 178.65 42.6278 178.916 41.936C179.187 41.2443 179.582 40.7214 180.103 40.3672C180.623 40.013 181.256 39.8359 182.004 39.8359C182.751 39.8359 183.381 40.013 183.896 40.3672C184.416 40.7214 184.812 41.2443 185.083 41.936C185.36 42.6278 185.498 43.4744 185.498 44.4761V44.4927C185.498 45.5109 185.363 46.3659 185.091 47.0576C184.82 47.7493 184.425 48.2723 183.904 48.6265C183.384 48.9751 182.751 49.1494 182.004 49.1494ZM182.004 47.6968C182.374 47.6968 182.687 47.5806 182.941 47.3481C183.196 47.1102 183.387 46.7533 183.514 46.2773C183.647 45.8014 183.713 45.2093 183.713 44.501V44.4761C183.713 43.7677 183.647 43.1784 183.514 42.708C183.387 42.2376 183.196 41.8835 182.941 41.6455C182.687 41.4076 182.374 41.2886 182.004 41.2886C181.627 41.2886 181.312 41.4076 181.057 41.6455C180.803 41.8835 180.612 42.2376 180.484 42.708C180.357 43.1784 180.294 43.7677 180.294 44.4761V44.501C180.294 45.2093 180.357 45.8014 180.484 46.2773C180.612 46.7533 180.803 47.1102 181.057 47.3481C181.312 47.5806 181.627 47.6968 182.004 47.6968ZM187.15 49V39.9854H188.893V41.2222H188.952C189.129 40.8071 189.397 40.4723 189.757 40.2178C190.122 39.9632 190.576 39.8359 191.118 39.8359C191.909 39.8359 192.518 40.0877 192.944 40.5913C193.376 41.0949 193.592 41.7839 193.592 42.6582V49H191.849V42.9819C191.849 42.4728 191.735 42.0716 191.508 41.7783C191.287 41.4795 190.935 41.3301 190.454 41.3301C190.122 41.3301 189.84 41.4076 189.607 41.5625C189.375 41.7119 189.198 41.925 189.076 42.2017C188.954 42.4728 188.893 42.7882 188.893 43.1479V49H187.15ZM198.307 49.1411C197.659 49.1411 197.101 49.0332 196.63 48.8174C196.16 48.6016 195.795 48.2944 195.534 47.896C195.28 47.4976 195.147 47.0216 195.136 46.4683V46.2607H196.821V46.4517C196.849 46.8944 196.99 47.2292 197.244 47.4561C197.499 47.6829 197.856 47.7964 198.315 47.7964C198.592 47.7964 198.83 47.7493 199.029 47.6553C199.234 47.5612 199.392 47.4312 199.502 47.2651C199.618 47.0936 199.677 46.8971 199.677 46.6758V46.6592C199.677 46.3438 199.569 46.0781 199.353 45.8623C199.143 45.6465 198.791 45.4473 198.299 45.2646L197.469 44.9824C196.97 44.7998 196.561 44.5868 196.24 44.3433C195.919 44.0998 195.681 43.8175 195.526 43.4966C195.371 43.1756 195.294 42.8104 195.294 42.4009V42.3843C195.294 41.8918 195.421 41.4546 195.676 41.0728C195.936 40.6854 196.293 40.3838 196.746 40.168C197.2 39.9466 197.726 39.8359 198.324 39.8359C198.916 39.8359 199.43 39.9411 199.867 40.1514C200.305 40.3617 200.642 40.6632 200.88 41.0562C201.118 41.4435 201.243 41.9056 201.254 42.4424L201.262 42.708H199.635V42.4839C199.618 42.0744 199.494 41.7534 199.262 41.521C199.029 41.2886 198.714 41.1724 198.315 41.1724C198.055 41.1724 197.828 41.2194 197.635 41.3135C197.446 41.4076 197.3 41.5376 197.195 41.7036C197.089 41.8696 197.037 42.0633 197.037 42.2847V42.3013C197.037 42.5116 197.078 42.6969 197.161 42.8574C197.25 43.0179 197.391 43.1618 197.585 43.2891C197.784 43.4163 198.047 43.5381 198.373 43.6543L199.195 43.9448C199.975 44.2271 200.543 44.5701 200.897 44.9741C201.256 45.3781 201.436 45.89 201.436 46.5098V46.5264C201.436 47.0465 201.306 47.5031 201.046 47.896C200.786 48.2889 200.421 48.596 199.95 48.8174C199.48 49.0332 198.932 49.1411 198.307 49.1411Z" fill="white" fill-opacity="0.85"/>
</svg>
