<svg width="25" height="24" viewBox="0 0 25 24" fill="none" xmlns="http://www.w3.org/2000/svg">
<g clip-path="url(#clip0_10403_2884)">
<path d="M17.6284 1.11572C16.5094 1.11572 15.4399 1.37225 14.4496 1.87823C13.7756 2.22259 13.1564 2.68013 12.625 3.22297C12.0936 2.68013 11.4744 2.22259 10.8004 1.87823C9.81007 1.37225 8.74056 1.11572 7.62152 1.11572C3.76366 1.11572 0.625 4.25438 0.625 8.11229C0.625 10.8448 2.06812 13.7469 4.91422 16.7381C7.29057 19.2357 10.2 21.3176 12.2221 22.6243L12.625 22.8847L13.0279 22.6243C15.05 21.3176 17.9594 19.2357 20.3358 16.7381C23.1819 13.7469 24.625 10.8448 24.625 8.11229C24.625 4.25438 21.4863 1.11572 17.6284 1.11572Z" fill="#899B9C"/>
</g>
<defs>
<clipPath id="clip0_10403_2884">
<rect width="24" height="24" fill="white" transform="translate(0.625)"/>
</clipPath>
</defs>
</svg>
