<svg width="76" height="75" viewBox="0 0 76 75" fill="none" xmlns="http://www.w3.org/2000/svg">
<rect x="1.375" y="0.5" width="74" height="74" rx="15.5" fill="#2C4649"/>
<rect x="1.375" y="0.5" width="74" height="74" rx="15.5" fill="url(#paint0_radial_10007_5385)"/>
<rect x="1.375" y="0.5" width="74" height="74" rx="15.5" stroke="#11191A"/>
<path d="M24.6665 39.6667C24.6665 36.524 24.6665 34.9526 25.6428 33.9763C26.6191 33 28.1905 33 31.3332 33H31.9051C33.2676 33 33.9488 33 34.5614 33.2537C35.174 33.5075 35.6557 33.9892 36.6191 34.9526L37.7139 36.0474C38.6773 37.0108 39.159 37.4925 39.7716 37.7463C40.3842 38 41.0654 38 42.4279 38H44.6665C47.8092 38 49.3805 38 50.3569 38.9763C51.3332 39.9526 51.3332 41.524 51.3332 44.6667V44.6667C51.3332 47.8094 51.3332 49.3807 50.3569 50.357C49.3805 51.3333 47.8092 51.3333 44.6665 51.3333H31.3332C28.1905 51.3333 26.6191 51.3333 25.6428 50.357C24.6665 49.3807 24.6665 47.8094 24.6665 44.6667V39.6667Z" stroke="#F2B91D" stroke-width="2.5"/>
<path d="M48 37.9998V31.3332C48 28.1905 48 26.6191 47.0237 25.6428C46.0474 24.6665 44.476 24.6665 41.3333 24.6665H34.6667C31.524 24.6665 29.9526 24.6665 28.9763 25.6428C28 26.6191 28 28.1905 28 31.3332V32.9998" stroke="#F2B91D" stroke-width="2.5"/>
<defs>
<radialGradient id="paint0_radial_10007_5385" cx="0" cy="0" r="1" gradientUnits="userSpaceOnUse" gradientTransform="translate(38.375 37.5006) scale(37.5 23437.5)">
<stop stop-color="#11191A" stop-opacity="0.75"/>
<stop offset="1" stop-color="#11191A" stop-opacity="0"/>
</radialGradient>
</defs>
</svg>
