<svg width="24" height="24" viewBox="0 0 24 24" fill="none" xmlns="http://www.w3.org/2000/svg">
    <g clip-path="url(#clip0_4131_3948)">
        <path d="M12.6459 1.03902C13.1975 0.690925 13.9202 0.794797 14.3513 1.2842C14.6898 1.66844 15.2191 1.82387 15.7116 1.68361C16.3389 1.50501 17.0031 1.80832 17.2788 2.39934C17.4953 2.86341 17.9594 3.16158 18.4714 3.16581C19.1236 3.17113 19.6754 3.64926 19.7735 4.29409C19.8506 4.80035 20.2118 5.21723 20.7019 5.3655C21.3262 5.55438 21.7209 6.16859 21.6334 6.81491C21.5646 7.32237 21.7938 7.82411 22.2223 8.10448C22.768 8.4616 22.9738 9.16211 22.7077 9.7576C22.4988 10.2251 22.5773 10.7711 22.9095 11.1608C23.3325 11.6572 23.3325 12.3873 22.9095 12.8837C22.5773 13.2735 22.4988 13.8195 22.7077 14.287C22.9738 14.8825 22.7681 15.583 22.2223 15.9401C21.7938 16.2205 21.5646 16.7222 21.6334 17.2297C21.7209 17.876 21.3262 18.4902 20.7019 18.6791C20.2118 18.8273 19.8505 19.2442 19.7735 19.7505C19.6754 20.3953 19.1236 20.8734 18.4714 20.8788C17.9594 20.8829 17.4953 21.1812 17.2788 21.6452C17.003 22.2363 16.3389 22.5396 15.7116 22.361C15.2191 22.2207 14.6899 22.3761 14.3513 22.7604C13.9202 23.2498 13.1975 23.3537 12.6459 23.0056C12.2129 22.7322 11.6613 22.7322 11.2283 23.0056C10.6767 23.3536 9.95401 23.2497 9.52288 22.7604C9.18438 22.3761 8.65513 22.2207 8.16261 22.361C7.53534 22.5396 6.87117 22.2363 6.59541 21.6452C6.37888 21.1812 5.91486 20.883 5.4028 20.8788C4.75062 20.8734 4.19881 20.3953 4.1007 19.7505C4.02366 19.2442 3.66246 18.8273 3.17233 18.6791C2.54805 18.4902 2.15334 17.876 2.24085 17.2297C2.30958 16.7222 2.08043 16.2205 1.65193 15.9401C1.10617 15.583 0.900445 14.8825 1.16651 14.287C1.37541 13.8195 1.29693 13.2735 0.964765 12.8837C0.541693 12.3873 0.541693 11.6572 0.964765 11.1608C1.29693 10.7711 1.37541 10.2251 1.16651 9.7576C0.900445 9.16211 1.10612 8.46155 1.65193 8.10448C2.08043 7.82411 2.30958 7.32237 2.24085 6.81491C2.15329 6.16859 2.54805 5.55438 3.17233 5.3655C3.66246 5.21723 4.02371 4.80035 4.1007 4.29409C4.19881 3.64931 4.75062 3.17118 5.4028 3.16581C5.91486 3.16163 6.37888 2.86341 6.59541 2.39934C6.87121 1.80832 7.53534 1.50501 8.16261 1.68361C8.65509 1.82387 9.18438 1.66844 9.52288 1.2842C9.95401 0.794797 10.6767 0.690925 11.2283 1.03902C11.6613 1.31233 12.2129 1.31233 12.6459 1.03902Z" fill="#0FA50F"/>
        <path d="M4.846 10.3128V11.8587H6.71656V12.7862H4.846V14.6414H3.7793V9.38525H7.13397V10.3128H4.846Z" fill="white"/>
        <path d="M7.88384 9.38525H9.92446C11.1612 9.38525 11.7796 9.96245 11.7796 11.1167C11.7796 11.8021 11.5219 12.307 11.0066 12.6316L11.7564 14.6414H10.5892L9.97856 12.879H8.95049V14.6414H7.88379V9.38525H7.88384ZM9.93992 11.9669C10.1821 11.9669 10.3676 11.891 10.4964 11.7389C10.6252 11.587 10.6897 11.3822 10.6897 11.1244C10.6897 10.8668 10.6227 10.6645 10.4887 10.5176C10.3547 10.3707 10.1666 10.2973 9.92446 10.2973H8.95054V11.9669H9.93992Z" fill="white"/>
        <path d="M13.7424 10.3128V11.5418H15.613V12.4538H13.7424V13.7138H16.0768V14.6413H12.6758V9.38525H16.0768V10.3128H13.7424Z" fill="white"/>
        <path d="M18.0247 10.3128V11.5418H19.8953V12.4538H18.0247V13.7138H20.359V14.6413H16.958V9.38525H20.359V10.3128H18.0247Z" fill="white"/>
    </g>
    <defs>
        <clipPath id="clip0_4131_3948">
            <rect width="24" height="24" fill="white"/>
        </clipPath>
    </defs>
</svg>
