<svg width="24" height="22" viewBox="0 0 24 22" fill="none" xmlns="http://www.w3.org/2000/svg">
<path d="M14.2796 1.76875L14.2797 1.76872C15.1281 1.3352 16.0415 1.11572 17.0034 1.11572C20.3091 1.11572 23 3.80666 23 7.11229C23 9.48356 21.7439 12.1506 18.9863 15.0488C16.7416 17.408 13.9846 19.4019 12 20.6937C10.0154 19.4019 7.25837 17.408 5.01369 15.0488C2.25605 12.1506 1 9.48356 1 7.11229C1 3.80666 3.69095 1.11572 6.99652 1.11572C7.95842 1.11572 8.87188 1.3352 9.72036 1.76873L9.72042 1.76875C10.2967 2.06315 10.8285 2.45573 11.2854 2.92248L12 3.65255L12.7146 2.92248C13.1715 2.45573 13.7033 2.06315 14.2796 1.76875Z" stroke="#EF4444" stroke-width="2"/>
</svg>
