<svg width="24" height="24" viewBox="0 0 24 24" fill="none" xmlns="http://www.w3.org/2000/svg">
<path d="M8.68683 22.528V18.8587C8.68683 17.9221 9.4517 17.1628 10.3952 17.1628H13.8442C14.2973 17.1628 14.7318 17.3414 15.0522 17.6595C15.3726 17.9776 15.5526 18.4089 15.5526 18.8587V22.528C15.5497 22.9174 15.7036 23.2918 15.9799 23.5682C16.2563 23.8446 16.6323 24 17.0246 24H19.3777C20.4766 24.0028 21.5316 23.5714 22.3097 22.801C23.0878 22.0305 23.5251 20.9844 23.5251 19.8934V9.44023C23.5251 8.55895 23.1316 7.72301 22.4506 7.1576L14.4459 0.811042C13.0535 -0.301726 11.0584 -0.265797 9.70756 0.896374L1.88551 7.1576C1.17239 7.70634 0.74616 8.54476 0.725098 9.44023V19.8827C0.725098 22.1566 2.58195 24 4.8725 24H7.17184C7.98656 24 8.64869 23.3474 8.65459 22.5387L8.68683 22.528Z" fill="#899B9C"/>
</svg>
