<svg width="23" height="24" viewBox="0 0 23 24" fill="none" xmlns="http://www.w3.org/2000/svg">
<path d="M8.16168 22.528V18.8587C8.16168 17.9221 8.92655 17.1628 9.87007 17.1628H13.3191C13.7722 17.1628 14.2067 17.3414 14.5271 17.6595C14.8475 17.9776 15.0275 18.4089 15.0275 18.8587V22.528C15.0246 22.9174 15.1784 23.2918 15.4548 23.5682C15.7312 23.8446 16.1072 24 16.4995 24H18.8525C19.9515 24.0028 21.0064 23.5714 21.7845 22.801C22.5626 22.0305 22.9999 20.9844 22.9999 19.8934V9.44023C22.9999 8.55895 22.6064 7.72301 21.9255 7.1576L13.9208 0.811042C12.5283 -0.301726 10.5333 -0.265797 9.18242 0.896374L1.36037 7.1576C0.64724 7.70634 0.221014 8.54476 0.199951 9.44023V19.8827C0.199951 22.1566 2.05681 24 4.34736 24H6.6467C7.46142 24 8.12354 23.3474 8.12945 22.5387L8.16168 22.528Z" fill="#F2B91D"/>
</svg>
