<svg width="151" height="150" viewBox="0 0 151 150" fill="none" xmlns="http://www.w3.org/2000/svg">
<g opacity="0.5">
<path d="M93.4297 21.1171L103.578 42.5859L90.7343 48.3281L80.7265 27.1406C76.2968 17.789 65.1171 13.7812 55.7656 18.2109C46.414 22.6171 42.4062 33.8203 46.8125 43.1718L59.6562 70.3125H45.0312C44.7265 70.3125 44.4218 70.3359 44.1171 70.3593L34.1093 49.1718C26.375 32.8125 33.3828 13.2187 49.7421 5.48434C66.1015 -2.25004 85.6953 4.75777 93.4297 21.1171Z" fill="#CACAE5"/>
<path d="M73.1563 11.7188C61.4376 7.03131 49.7188 11.7188 42.6876 21.0938C35.6563 32.8126 45.0313 49.2188 42.6876 60.9376C42.6876 62.0649 42.1368 63.1876 41.2157 64.2165L44.1173 70.3594C44.4219 70.336 44.7266 70.3126 45.0313 70.3126H59.6563L46.8126 43.1719C42.4063 33.8204 46.4141 22.6172 55.7657 18.211C65.1173 13.7813 76.2969 17.7891 80.7266 27.1407L90.7344 48.3282L97.9743 45.0915C91.6204 30.5555 84.8751 16.4063 73.1563 11.7188Z" fill="#7876AB"/>
<path d="M83.4683 123.469C83.8667 125.297 82.4839 127.031 80.6089 127.031H70.3902C68.5152 127.031 67.1324 125.297 67.5308 123.469L71.5152 105.586C68.2808 103.899 66.1949 100.336 66.8746 96.3282C67.4605 92.7657 70.3433 89.836 73.9058 89.2032C79.437 88.2189 84.2652 92.461 84.2652 97.8282C84.2652 101.203 82.3199 104.109 79.4839 105.586L83.4683 123.469Z" fill="#5E5E84"/>
<path d="M59.6562 70.3125H105.969C111.148 70.3125 115.344 74.5078 115.344 79.6875V138.281C115.344 143.461 111.148 147.656 105.969 147.656H45.0312C39.8516 147.656 35.6562 143.461 35.6562 138.281V79.6875C35.6562 74.8125 39.3594 70.8047 44.1172 70.3594C44.4219 70.3359 44.7266 70.3125 45.0312 70.3125H59.6562ZM80.6094 127.031C82.4844 127.031 83.8672 125.297 83.4688 123.469L79.4844 105.586C82.3203 104.109 84.2656 101.203 84.2656 97.8281C84.2656 92.4609 79.4375 88.2188 73.9062 89.2031C70.3438 89.8359 67.4609 92.7656 66.875 96.3281C66.1953 100.336 68.2812 103.898 71.5156 105.586L67.5312 123.469C67.1328 125.297 68.5156 127.031 70.3906 127.031H80.6094Z" fill="#FFC32C"/>
<path d="M115.344 79.6875V138.281C115.344 143.461 111.148 147.656 105.969 147.656H45.0312C40.6719 147.656 36.9922 144.68 35.9609 140.625H96.5937C101.773 140.625 105.969 136.43 105.969 131.25V72.6562C105.969 71.8359 105.875 71.0625 105.664 70.3125H105.969C111.148 70.3125 115.344 74.5078 115.344 79.6875Z" fill="#FFA300"/>
<path d="M42.6875 84.975V80.3016C42.6875 78.668 44.0117 77.3438 45.6453 77.3438H51.0969C53.8437 77.3438 55.107 80.7609 53.0211 82.5469L47.5695 87.2203C45.6523 88.8656 42.6875 87.5016 42.6875 84.975Z" fill="#FFEDC5"/>
<path d="M108.312 35.1562C107.019 35.1562 105.969 34.1086 105.969 32.8125V21.0938C105.969 19.7977 107.019 18.75 108.312 18.75C109.606 18.75 110.656 19.7977 110.656 21.0938V32.8125C110.656 34.1086 109.606 35.1562 108.312 35.1562Z" fill="#FFC32C"/>
<path d="M115.343 37.4996C114.743 37.4996 114.143 37.2699 113.686 36.8129C112.77 35.8965 112.77 34.4152 113.686 33.4988L123.061 24.1238C123.978 23.2074 125.459 23.2074 126.375 24.1238C127.292 25.0402 127.292 26.5215 126.375 27.4379L117 36.8129C116.543 37.2699 115.943 37.4996 115.343 37.4996Z" fill="#FFC32C"/>
<path d="M129.406 44.5312H120.031C118.738 44.5312 117.688 43.4836 117.688 42.1875C117.688 40.8914 118.738 39.8438 120.031 39.8438H129.406C130.7 39.8438 131.75 40.8914 131.75 42.1875C131.75 43.4836 130.7 44.5312 129.406 44.5312Z" fill="#FFC32C"/>
</g>
</svg>
