<svg width="25" height="24" viewBox="0 0 25 24" fill="none" xmlns="http://www.w3.org/2000/svg">
<g clip-path="url(#clip0_10403_2881)">
<path d="M21.375 4H20.375V1C20.375 0.448 19.927 0 19.375 0H4.375C2.721 0 1.376 1.345 1.375 2.999V21C1.375 22.654 2.721 24 4.375 24H21.375C21.927 24 22.375 23.552 22.375 23V5C22.375 4.448 21.927 4 21.375 4ZM15.375 14.25C15.375 14.936 14.53 15.257 14.072 14.757L11.875 12.36L9.678 14.757C9.22 15.259 8.375 14.935 8.375 14.25V7C8.375 6.448 8.823 6 9.375 6H14.375C14.927 6 15.375 6.448 15.375 7V14.25ZM18.375 4H4.375C3.824 4 3.375 3.551 3.375 3C3.375 2.449 3.824 2 4.375 2H18.375V4Z" fill="#899B9C"/>
</g>
<defs>
<clipPath id="clip0_10403_2881">
<rect width="24" height="24" fill="white" transform="translate(0.375)"/>
</clipPath>
</defs>
</svg>
