<svg width="24" height="24" viewBox="0 0 24 24" fill="none" xmlns="http://www.w3.org/2000/svg">
<circle cx="12" cy="8" r="3" fill="#F2B91D" stroke="#F2B91D" stroke-width="2" stroke-linecap="round"/>
<path d="M15.701 8.25C15.8999 7.90547 16.2275 7.65408 16.6118 7.55111C16.996 7.44815 17.4055 7.50205 17.75 7.70096C18.0945 7.89987 18.3459 8.2275 18.4489 8.61177C18.5519 8.99604 18.498 9.40547 18.299 9.75C18.1001 10.0945 17.7725 10.3459 17.3882 10.4489C17.004 10.5519 16.5945 10.498 16.25 10.299C15.9055 10.1001 15.6541 9.7725 15.5511 9.38823C15.4481 9.00396 15.502 8.59453 15.701 8.25L15.701 8.25Z" stroke="#F2B91D" stroke-width="3"/>
<path d="M5.70096 8.25C5.89987 7.90547 6.2275 7.65408 6.61177 7.55111C6.99604 7.44815 7.40547 7.50205 7.75 7.70096C8.09453 7.89987 8.34592 8.2275 8.44889 8.61177C8.55185 8.99604 8.49795 9.40547 8.29904 9.75C8.10013 10.0945 7.7725 10.3459 7.38823 10.4489C7.00396 10.5519 6.59453 10.498 6.25 10.299C5.90547 10.1001 5.65408 9.7725 5.55111 9.38823C5.44815 9.00396 5.50205 8.59453 5.70096 8.25L5.70096 8.25Z" stroke="#F2B91D" stroke-width="3"/>
<path fill-rule="evenodd" clip-rule="evenodd" d="M16.8821 18H19.8676C20.4691 18 20.9217 17.471 20.7206 16.9042C20.3006 15.7199 19.2955 14 17.0004 14C16.0605 14 15.3369 14.2885 14.7812 14.7105C16.1651 15.5712 16.686 17.0264 16.8821 18Z" fill="#F2B91D"/>
<path d="M16.8821 18L15.9017 18.1974L16.0634 19H16.8821V18ZM20.7206 16.9042L21.6631 16.5699L20.7206 16.9042ZM14.7812 14.7105L14.1764 13.9142L13.0198 14.7927L14.2531 15.5597L14.7812 14.7105ZM19.8676 17H16.8821V19H19.8676V17ZM19.7782 17.2384C19.7711 17.2186 19.7646 17.181 19.773 17.1354C19.7808 17.0921 19.7987 17.0593 19.8156 17.0383C19.8478 16.9982 19.8744 17 19.8676 17V19C21.0137 19 22.1418 17.9194 21.6631 16.5699L19.7782 17.2384ZM17.0004 15C18.642 15 19.4031 16.1811 19.7782 17.2384L21.6631 16.5699C21.1981 15.2588 19.949 13 17.0004 13V15ZM15.3861 15.5069C15.7706 15.2148 16.2824 15 17.0004 15V13C15.8385 13 14.9032 13.3622 14.1764 13.9142L15.3861 15.5069ZM14.2531 15.5597C15.2923 16.206 15.7275 17.3324 15.9017 18.1974L17.8624 17.8026C17.6444 16.7204 17.0378 14.9364 15.3094 13.8614L14.2531 15.5597Z" fill="#F2B91D"/>
<path fill-rule="evenodd" clip-rule="evenodd" d="M9.21924 14.7105C8.66361 14.2885 7.94003 14 7.00008 14C4.70503 14 3.69991 15.7199 3.27986 16.9041C3.07878 17.471 3.53135 18 4.13284 18H7.11841C7.3145 17.0264 7.83542 15.5712 9.21924 14.7105Z" fill="#F2B91D"/>
<path d="M9.21924 14.7105L9.74736 15.5597L10.9807 14.7927L9.82409 13.9142L9.21924 14.7105ZM3.27986 16.9041L4.22233 17.2384L4.22233 17.2384L3.27986 16.9041ZM7.11841 18V19H7.93709L8.09873 18.1974L7.11841 18ZM7.00008 15C7.71809 15 8.22992 15.2148 8.61439 15.5069L9.82409 13.9142C9.09729 13.3621 8.16196 13 7.00008 13V15ZM4.22233 17.2384C4.59738 16.1811 5.35849 15 7.00008 15V13C4.05157 13 2.80244 15.2587 2.33739 16.5699L4.22233 17.2384ZM4.13284 17C4.12606 17 4.1527 16.9982 4.18492 17.0383C4.20182 17.0593 4.21967 17.0921 4.22754 17.1354C4.23586 17.181 4.22937 17.2186 4.22233 17.2384L2.33739 16.5699C1.8587 17.9194 2.98683 19 4.13284 19V17ZM7.11841 17H4.13284V19H7.11841V17ZM8.09873 18.1974C8.27295 17.3324 8.7082 16.206 9.74736 15.5597L8.69112 13.8614C6.96263 14.9363 6.35606 16.7203 6.1381 17.8026L8.09873 18.1974Z" fill="#F2B91D"/>
<path d="M12 14C15.5715 14 16.5919 16.5512 16.8834 18.0089C16.9917 18.5504 16.5523 19 16 19H8C7.44772 19 7.00829 18.5504 7.11659 18.0089C7.4081 16.5512 8.42846 14 12 14Z" fill="#F2B91D" stroke="#F2B91D" stroke-width="2" stroke-linecap="round"/>
</svg>
